<svg width="421" height="111" viewBox="0 0 421 111" fill="none" xmlns="http://www.w3.org/2000/svg">
<path d="M24.0477 46.9763C20.3423 46.9763 17.0161 46.3608 14.063 45.1298C11.1099 43.8988 8.592 42.1829 6.50928 39.9758C4.42656 37.7688 2.81634 35.2695 1.69105 32.4594C0.559537 29.6555 0 26.7024 0 23.6125C0 19.3786 0.969864 15.4992 2.90959 11.9803C4.84932 8.46145 7.60971 5.63889 11.2032 3.51887C14.7842 1.39885 19.0429 0.341942 23.9606 0.341942C28.8783 0.341942 33.1059 1.41128 36.6373 3.55617C40.1686 5.70107 42.8046 8.50497 44.5392 11.9803L33.1619 15.4557C32.1796 13.7771 30.874 12.4901 29.2514 11.5886C27.6287 10.6934 25.832 10.2395 23.8674 10.2395C21.6665 10.2395 19.6584 10.7929 17.8306 11.8995C16.009 13.0061 14.5728 14.5666 13.5346 16.5872C12.4901 18.6015 11.9741 20.9453 11.9741 23.6187C11.9741 26.292 12.5088 28.5426 13.5781 30.5632C14.6474 32.5775 16.0836 34.1691 17.8741 35.3317C19.6708 36.4943 21.6665 37.0787 23.8674 37.0787C25.2538 37.0787 26.5718 36.8486 27.8214 36.3824C29.0648 35.9223 30.1777 35.2819 31.1662 34.4737C32.1485 33.6655 32.8759 32.7391 33.336 31.6947L44.7132 35.17C43.6688 37.4268 42.1518 39.4536 40.1561 41.2503C38.1604 43.0471 35.8166 44.4521 33.1246 45.4593C30.4326 46.4727 27.4049 46.9763 24.0477 46.9763Z" fill="url(#paint0_linear_1_28)"/>
<path d="M71.5524 46.9763C67.847 46.9763 64.5208 46.3608 61.5677 45.1298C58.6146 43.8988 56.1091 42.1953 54.0575 40.0193C51.9996 37.8434 50.4267 35.3565 49.3263 32.5464C48.2259 29.7425 47.6788 26.7894 47.6788 23.6995C47.6788 20.6096 48.2259 17.5757 49.3263 14.7656C50.4267 11.9617 52.0059 9.46861 54.0575 7.29264C56.1091 5.11666 58.6146 3.41318 61.5677 2.1822C64.5208 0.951215 67.847 0.335724 71.5524 0.335724C75.2577 0.335724 78.5714 0.951215 81.4935 2.1822C84.4155 3.41318 86.921 5.11666 89.0037 7.29264C91.0864 9.46861 92.6656 11.9617 93.7349 14.7656C94.8042 17.5695 95.3389 20.5475 95.3389 23.6995C95.3389 26.8516 94.8042 29.7363 93.7349 32.5464C92.6656 35.3503 91.0989 37.8434 89.0472 40.0193C86.9894 42.1953 84.4901 43.8988 81.537 45.1298C78.5839 46.3608 75.2515 46.9763 71.5524 46.9763ZM59.6529 23.6995C59.6529 26.3107 60.1751 28.6234 61.2134 30.644C62.2578 32.6583 63.6753 34.2375 65.4658 35.3752C67.2626 36.5129 69.2893 37.0787 71.5461 37.0787C73.8029 37.0787 75.7427 36.4943 77.5394 35.3317C79.3361 34.1691 80.7661 32.5775 81.8354 30.5632C82.9048 28.5488 83.4394 26.2361 83.4394 23.6187C83.4394 21.0013 82.9048 18.7632 81.8354 16.7177C80.7661 14.6723 79.3299 13.087 77.5394 11.9492C75.7427 10.8115 73.747 10.2457 71.5461 10.2457C69.3453 10.2457 67.2626 10.8302 65.4658 11.9927C63.6691 13.1553 62.2516 14.7469 61.2134 16.7612C60.1689 18.7756 59.6529 21.0883 59.6529 23.7057V23.6995Z" fill="url(#paint1_linear_1_28)"/>
<path d="M129.384 10.6747C125.852 10.6747 122.694 11.3586 119.915 12.7139C117.136 14.0755 115.14 16.0276 113.922 18.5766V46.1059H102.283V1.03825H112.964V10.3328C114.587 7.2056 116.639 4.74363 119.132 2.95311C121.619 1.15638 124.255 0.174078 127.034 0H128.507C128.855 0 129.141 0.0310854 129.377 0.0870391V10.6809L129.384 10.6747Z" fill="url(#paint2_linear_1_28)"/>
<path d="M155.52 46.9763C151.871 46.9763 148.576 46.3608 145.623 45.1298C142.67 43.8988 140.152 42.2078 138.069 40.0629C135.986 37.918 134.376 35.456 133.251 32.677C132.119 29.8979 131.56 26.9635 131.56 23.8736C131.56 19.5776 132.529 15.6608 134.469 12.1047C136.409 8.5547 139.188 5.70728 142.806 3.55617C146.425 1.41128 150.696 0.335724 155.613 0.335724C160.531 0.335724 164.846 1.41128 168.377 3.56239C171.908 5.7135 174.613 8.54849 176.497 12.0798C178.38 15.6049 179.319 19.4035 179.319 23.4757C179.319 24.1658 179.288 24.8683 179.232 25.5833C179.176 26.2983 179.114 26.8889 179.058 27.3489H143.888C144.118 29.612 144.802 31.589 145.927 33.2863C147.059 34.9835 148.501 36.2704 150.267 37.1471C152.032 38.0237 153.929 38.4589 155.955 38.4589C158.268 38.4589 160.457 37.8931 162.514 36.7678C164.566 35.6363 165.971 34.1504 166.723 32.2977L176.708 35.0768C175.608 37.3957 174.028 39.4474 171.977 41.2441C169.919 43.0408 167.507 44.4459 164.728 45.4531C161.949 46.4665 158.877 46.97 155.52 46.97V46.9763ZM143.627 19.9693H167.42C167.19 17.7062 166.537 15.7416 165.468 14.0693C164.398 12.4031 162.993 11.0975 161.259 10.1649C159.524 9.23237 157.584 8.76608 155.439 8.76608C153.295 8.76608 151.46 9.23237 149.751 10.1649C148.041 11.0975 146.655 12.3969 145.585 14.0693C144.516 15.7354 143.863 17.7062 143.633 19.9693H143.627Z" fill="url(#paint3_linear_1_28)"/>
<path d="M29.9539 73.89C26.4226 73.89 23.2643 74.5739 20.4853 75.9292C17.7063 77.2907 15.7106 79.2429 14.492 81.7919V109.321H2.85986V64.2535H13.5408V73.5481C15.1635 70.4209 17.2151 67.9589 19.7082 66.1684C22.195 64.3716 24.831 63.3893 27.6101 63.2153H29.0835C29.4317 63.2153 29.7176 63.2464 29.9539 63.3023V73.8962V73.89Z" fill="url(#paint4_linear_1_28)"/>
<path d="M56.0905 110.192C52.4411 110.192 49.146 109.576 46.1929 108.345C43.2398 107.114 40.7219 105.423 38.6392 103.278C36.5564 101.133 34.9462 98.6713 33.8209 95.8922C32.6894 93.1132 32.1299 90.1787 32.1299 87.0889C32.1299 82.7929 33.0997 78.8761 35.0395 75.3199C36.9792 71.77 39.7582 68.9226 43.3766 66.7714C46.9949 64.6265 51.2661 63.551 56.1838 63.551C61.1015 63.551 65.4161 64.6265 68.9474 66.7777C72.4787 68.9288 75.1832 71.7638 77.0669 75.2951C78.9507 78.8201 79.8895 82.6188 79.8895 86.691C79.8895 87.3811 79.8584 88.0836 79.8024 88.7986C79.7465 89.5135 79.6843 90.1041 79.6284 90.558H44.4584C44.6884 92.821 45.3723 94.798 46.4976 96.4953C47.6291 98.1926 49.0714 99.4795 50.8371 100.356C52.6027 101.233 54.4989 101.668 56.5257 101.668C58.8385 101.668 61.0269 101.102 63.0847 99.9769C65.1364 98.8454 66.5414 97.3595 67.2937 95.5068L77.2783 98.2858C76.1779 100.605 74.5988 102.656 72.5471 104.453C70.4893 106.25 68.077 107.655 65.298 108.662C62.519 109.676 59.4477 110.179 56.0905 110.179V110.192ZM44.1972 83.1845H67.99C67.76 80.9215 67.1072 78.9569 66.0378 77.2845C64.9685 75.6183 63.5634 74.3128 61.8289 73.3802C60.0943 72.4476 58.1546 71.9814 56.0097 71.9814C53.8648 71.9814 52.0308 72.4476 50.3211 73.3802C48.6114 74.3128 47.225 75.6121 46.1556 77.2845C45.0863 78.9507 44.4335 80.9215 44.2035 83.1845H44.1972Z" fill="url(#paint5_linear_1_28)"/>
<path d="M102.899 110.192C99.0194 110.192 95.314 109.551 91.7827 108.283C88.2514 107.008 85.2113 105.131 82.6623 102.638L86.8277 95.084C89.5508 97.2849 92.2242 98.9075 94.8602 99.9458C97.4962 100.99 100.027 101.506 102.457 101.506C104.714 101.506 106.523 101.115 107.885 100.331C109.247 99.5479 109.924 98.3791 109.924 96.8124C109.924 95.7244 109.545 94.8851 108.793 94.282C108.04 93.6852 106.952 93.1505 105.535 92.6967C104.117 92.2366 102.395 91.7268 100.369 91.1548C97.0113 90.0668 94.2012 89.0099 91.9444 87.9841C89.6876 86.9583 87.9903 85.6527 86.865 84.086C85.7335 82.5131 85.174 80.4988 85.174 78.043C85.174 75.0712 85.9387 72.516 87.4743 70.3711C89.0099 68.2262 91.1486 66.5538 93.9028 65.3539C96.6507 64.154 99.8774 63.551 103.583 63.551C106.822 63.551 109.893 64.0608 112.79 65.068C115.687 66.0813 118.317 67.7164 120.692 69.9732L116.004 77.3529C113.686 75.5562 111.491 74.2444 109.402 73.3988C107.319 72.5595 105.205 72.1368 103.061 72.1368C101.842 72.1368 100.698 72.2798 99.6287 72.5658C98.5594 72.8517 97.689 73.3242 97.0238 73.977C96.3585 74.6298 96.0228 75.5562 96.0228 76.7561C96.0228 77.8378 96.3274 78.6771 96.9367 79.274C97.546 79.8708 98.4723 80.3993 99.7157 80.8531C100.959 81.307 102.482 81.823 104.273 82.3887C107.922 83.4146 111 84.4715 113.524 85.5532C116.042 86.635 117.938 87.9592 119.213 89.526C120.487 91.0927 121.121 93.2438 121.121 95.9793C121.121 100.424 119.474 103.9 116.172 106.405C112.871 108.911 108.445 110.167 102.886 110.167L102.899 110.192Z" fill="url(#paint6_linear_1_28)"/>
<path d="M149.185 110.192C145.48 110.192 142.154 109.576 139.2 108.345C136.247 107.114 133.742 105.411 131.69 103.235C129.632 101.059 128.059 98.5718 126.959 95.7617C125.859 92.9578 125.311 90.0047 125.311 86.9148C125.311 83.8249 125.859 80.791 126.959 77.9808C128.059 75.1769 129.639 72.6839 131.69 70.5079C133.742 68.3319 136.247 66.6284 139.2 65.3975C142.154 64.1665 145.48 63.551 149.185 63.551C152.89 63.551 156.204 64.1665 159.126 65.3975C162.048 66.6284 164.554 68.3319 166.636 70.5079C168.719 72.6839 170.298 75.1769 171.368 77.9808C172.437 80.7847 172.972 83.7627 172.972 86.9148C172.972 90.0668 172.437 92.9516 171.368 95.7617C170.298 98.5656 168.732 101.059 166.68 103.235C164.622 105.411 162.123 107.114 159.17 108.345C156.217 109.576 152.884 110.192 149.185 110.192ZM137.286 86.9148C137.286 89.526 137.808 91.8387 138.846 93.8593C139.891 95.8736 141.308 97.4527 143.099 98.5905C144.895 99.7282 146.922 100.294 149.179 100.294C151.436 100.294 153.375 99.7095 155.172 98.5469C156.969 97.3843 158.399 95.7928 159.468 93.7784C160.537 91.7641 161.072 89.4513 161.072 86.834C161.072 84.2166 160.537 81.9784 159.468 79.933C158.399 77.8876 156.963 76.3022 155.172 75.1645C153.375 74.0268 151.38 73.461 149.179 73.461C146.978 73.461 144.895 74.0454 143.099 75.208C141.302 76.3706 139.884 77.9622 138.846 79.9765C137.802 81.9908 137.286 84.3036 137.286 86.921V86.9148Z" fill="url(#paint7_linear_1_28)"/>
<path d="M179.487 92.4666V64.2535H191.125V89.9114C191.125 93.3432 191.76 95.9295 193.034 97.6765C194.309 99.4235 196.186 100.294 198.679 100.294C200.184 100.294 201.676 99.9955 203.149 99.3987C204.623 98.8018 205.984 97.9128 207.234 96.7191C208.477 95.5254 209.534 94.0271 210.405 92.2117V64.2535H222.043V96.3399C222.043 97.5398 222.261 98.3977 222.696 98.9137C223.131 99.4298 223.84 99.7406 224.822 99.8587V109.327C223.666 109.501 222.696 109.632 221.912 109.719C221.129 109.806 220.42 109.85 219.786 109.85C217.703 109.85 216.006 109.377 214.707 108.426C213.401 107.481 212.637 106.175 212.407 104.515L212.145 100.903C210.119 103.943 207.514 106.25 204.331 107.829C201.147 109.402 197.641 110.192 193.824 110.192C189.136 110.192 185.574 108.687 183.143 105.678C180.712 102.669 179.493 98.2672 179.493 92.4728L179.487 92.4666Z" fill="url(#paint8_linear_1_28)"/>
<path d="M259.818 73.89C256.287 73.89 253.128 74.5739 250.349 75.9292C247.57 77.2907 245.575 79.2429 244.356 81.7919V109.321H232.718V64.2535H243.399V73.5481C245.021 70.4209 247.073 67.9589 249.566 66.1684C252.053 64.3716 254.689 63.3893 257.468 63.2153H258.941C259.29 63.2153 259.576 63.2464 259.812 63.3023V73.8962L259.818 73.89Z" fill="url(#paint9_linear_1_28)"/>
<path d="M286.042 110.192C282.336 110.192 279.01 109.576 276.057 108.345C273.104 107.114 270.586 105.398 268.503 103.191C266.421 100.99 264.81 98.4848 263.685 95.6746C262.553 92.8707 261.994 89.9176 261.994 86.8277C261.994 82.5939 262.964 78.7144 264.904 75.1956C266.843 71.6767 269.604 68.8542 273.197 66.7341C276.784 64.6141 281.043 63.5572 285.961 63.5572C290.879 63.5572 295.106 64.6265 298.637 66.7714C302.169 68.9163 304.805 71.7202 306.539 75.1956L295.162 78.6709C294.18 76.9923 292.874 75.7054 291.252 74.8039C289.629 73.9086 287.832 73.4548 285.868 73.4548C283.667 73.4548 281.659 74.0081 279.831 75.1148C278.009 76.2214 276.573 77.7819 275.535 79.8024C274.49 81.8168 273.974 84.1606 273.974 86.834C273.974 89.5073 274.509 91.7579 275.578 93.7784C276.648 95.7928 278.084 97.3843 279.874 98.5469C281.671 99.7095 283.667 100.294 285.868 100.294C287.254 100.294 288.572 100.064 289.822 99.5976C291.065 99.1376 292.178 98.4972 293.166 97.689C294.149 96.8808 294.876 95.9544 295.336 94.9099L306.713 98.3853C305.669 100.642 304.152 102.669 302.156 104.466C300.161 106.262 297.817 107.667 295.125 108.675C292.433 109.688 289.405 110.192 286.048 110.192H286.042Z" fill="url(#paint10_linear_1_28)"/>
<path d="M333.627 110.192C329.978 110.192 326.683 109.576 323.73 108.345C320.776 107.114 318.259 105.423 316.176 103.278C314.093 101.133 312.483 98.6713 311.358 95.8922C310.226 93.1132 309.667 90.1787 309.667 87.0889C309.667 82.7929 310.636 78.8761 312.576 75.3199C314.516 71.77 317.295 68.9226 320.913 66.7714C324.532 64.6265 328.803 63.551 333.72 63.551C338.638 63.551 342.953 64.6265 346.484 66.7777C350.015 68.9288 352.72 71.7638 354.604 75.2951C356.487 78.8201 357.426 82.6188 357.426 86.691C357.426 87.3811 357.395 88.0836 357.339 88.7986C357.283 89.5135 357.221 90.1041 357.165 90.558H321.995C322.225 92.821 322.909 94.798 324.034 96.4953C325.166 98.1926 326.608 99.4795 328.374 100.356C330.139 101.233 332.036 101.668 334.062 101.668C336.375 101.668 338.564 101.102 340.621 99.9769C342.673 98.8454 344.078 97.3595 344.83 95.5068L354.815 98.2858C353.715 100.605 352.135 102.656 350.084 104.453C348.026 106.25 345.614 107.655 342.835 108.662C340.056 109.676 336.984 110.179 333.627 110.179V110.192ZM321.734 83.1845H345.527C345.297 80.9215 344.644 78.9569 343.574 77.2845C342.505 75.6183 341.1 74.3128 339.366 73.3802C337.631 72.4476 335.691 71.9814 333.546 71.9814C331.401 71.9814 329.567 72.4476 327.858 73.3802C326.148 74.3128 324.762 75.6121 323.692 77.2845C322.623 78.9507 321.97 80.9215 321.74 83.1845H321.734Z" fill="url(#paint11_linear_1_28)"/>
<path d="M380.436 110.192C376.556 110.192 372.851 109.551 369.319 108.283C365.788 107.008 362.748 105.131 360.199 102.638L364.364 95.084C367.088 97.2849 369.761 98.9075 372.397 99.9458C375.033 100.99 377.563 101.506 379.994 101.506C382.251 101.506 384.06 101.115 385.422 100.331C386.783 99.5479 387.461 98.3791 387.461 96.8124C387.461 95.7244 387.082 94.8851 386.329 94.282C385.577 93.6852 384.489 93.1505 383.072 92.6967C381.654 92.2366 379.932 91.7268 377.905 91.1548C374.548 90.0668 371.738 89.0099 369.481 87.9841C367.224 86.9583 365.527 85.6527 364.402 84.086C363.27 82.5131 362.711 80.4988 362.711 78.043C362.711 75.0712 363.475 72.516 365.011 70.3711C366.547 68.2262 368.685 66.5538 371.439 65.3539C374.187 64.154 377.414 63.551 381.119 63.551C384.359 63.551 387.43 64.0608 390.327 65.068C393.224 66.0813 395.854 67.7164 398.229 69.9732L393.541 77.3529C391.222 75.5562 389.028 74.2444 386.939 73.3988C384.856 72.5595 382.742 72.1368 380.597 72.1368C379.379 72.1368 378.235 72.2798 377.165 72.5658C376.096 72.8517 375.226 73.3242 374.56 73.977C373.895 74.6298 373.559 75.5562 373.559 76.7561C373.559 77.8378 373.864 78.6771 374.473 79.274C375.083 79.8708 376.009 80.3993 377.252 80.8531C378.496 81.307 380.019 81.823 381.81 82.3887C385.459 83.4146 388.536 84.4715 391.061 85.5532C393.578 86.635 395.475 87.9592 396.749 89.526C398.024 91.0927 398.658 93.2438 398.658 95.9793C398.658 100.424 397.01 103.9 393.709 106.405C390.408 108.911 385.981 110.167 380.423 110.167L380.436 110.192Z" fill="url(#paint12_linear_1_28)"/>
<path d="M419.945 97.5833L408.512 94.1141C409.227 90.0793 409.233 86.0568 408.512 82.0468L419.945 78.5093C421.294 84.8631 421.294 91.2232 419.945 97.5771V97.5833Z" fill="url(#paint13_linear_1_28)"/>
<defs>
<linearGradient id="paint0_linear_1_28" x1="4.78093" y1="19.8511" x2="415.587" y2="101.127" gradientUnits="userSpaceOnUse">
<stop stop-color="#5C18F4"/>
<stop offset="1" stop-color="#7C4EF6"/>
</linearGradient>
<linearGradient id="paint1_linear_1_28" x1="6.57144" y1="10.8053" x2="417.377" y2="92.075" gradientUnits="userSpaceOnUse">
<stop stop-color="#5C18F4"/>
<stop offset="1" stop-color="#7C4EF6"/>
</linearGradient>
<linearGradient id="paint2_linear_1_28" x1="8.34954" y1="1.82782" x2="419.149" y2="83.0975" gradientUnits="userSpaceOnUse">
<stop stop-color="#5C18F4"/>
<stop offset="1" stop-color="#7C4EF6"/>
</linearGradient>
<linearGradient id="paint3_linear_1_28" x1="9.73592" y1="-5.20369" x2="420.542" y2="76.066" gradientUnits="userSpaceOnUse">
<stop stop-color="#5C18F4"/>
<stop offset="1" stop-color="#7C4EF6"/>
</linearGradient>
<linearGradient id="paint4_linear_1_28" x1="-7.43562" y1="81.593" x2="403.37" y2="162.863" gradientUnits="userSpaceOnUse">
<stop stop-color="#5C18F4"/>
<stop offset="1" stop-color="#7C4EF6"/>
</linearGradient>
<linearGradient id="paint5_linear_1_28" x1="-6.04298" y1="74.5614" x2="404.763" y2="155.831" gradientUnits="userSpaceOnUse">
<stop stop-color="#5C18F4"/>
<stop offset="1" stop-color="#7C4EF6"/>
</linearGradient>
<linearGradient id="paint6_linear_1_28" x1="-4.27736" y1="65.6462" x2="406.522" y2="146.916" gradientUnits="userSpaceOnUse">
<stop stop-color="#5C18F4"/>
<stop offset="1" stop-color="#7C4EF6"/>
</linearGradient>
<linearGradient id="paint7_linear_1_28" x1="-2.54279" y1="56.8552" x2="408.263" y2="138.131" gradientUnits="userSpaceOnUse">
<stop stop-color="#5C18F4"/>
<stop offset="1" stop-color="#7C4EF6"/>
</linearGradient>
<linearGradient id="paint8_linear_1_28" x1="-0.429025" y1="46.1867" x2="410.377" y2="127.456" gradientUnits="userSpaceOnUse">
<stop stop-color="#5C18F4"/>
<stop offset="1" stop-color="#7C4EF6"/>
</linearGradient>
<linearGradient id="paint9_linear_1_28" x1="1.22462" y1="37.8309" x2="412.031" y2="119.101" gradientUnits="userSpaceOnUse">
<stop stop-color="#5C18F4"/>
<stop offset="1" stop-color="#7C4EF6"/>
</linearGradient>
<linearGradient id="paint10_linear_1_28" x1="2.61119" y1="30.8056" x2="413.417" y2="112.081" gradientUnits="userSpaceOnUse">
<stop stop-color="#5C18F4"/>
<stop offset="1" stop-color="#7C4EF6"/>
</linearGradient>
<linearGradient id="paint11_linear_1_28" x1="4.4142" y1="21.7225" x2="415.214" y2="102.992" gradientUnits="userSpaceOnUse">
<stop stop-color="#5C18F4"/>
<stop offset="1" stop-color="#7C4EF6"/>
</linearGradient>
<linearGradient id="paint12_linear_1_28" x1="6.17365" y1="12.8072" x2="416.98" y2="94.0768" gradientUnits="userSpaceOnUse">
<stop stop-color="#5C18F4"/>
<stop offset="1" stop-color="#7C4EF6"/>
</linearGradient>
<linearGradient id="paint13_linear_1_28" x1="7.43658" y1="6.44089" x2="418.235" y2="87.7102" gradientUnits="userSpaceOnUse">
<stop stop-color="#5C18F4"/>
<stop offset="1" stop-color="#7C4EF6"/>
</linearGradient>
</defs>
</svg>
